<?xml version="1.0" standalone="no"?>
<!DOCTYPE svg PUBLIC "-//W3C//DTD SVG 20010904//EN"
 "http://www.w3.org/TR/2001/REC-SVG-20010904/DTD/svg10.dtd">
<svg version="1.0" xmlns="http://www.w3.org/2000/svg"
 width="128.000000pt" height="128.000000pt" viewBox="0 0 128.000000 128.000000"
 preserveAspectRatio="xMidYMid meet">

<g transform="translate(0.000000,128.000000) scale(0.100000,-0.100000)"
fill="#272727" stroke="none">
<path d="M500 1264 c-234 -50 -436 -254 -485 -489 -95 -454 306 -855 760 -760
182 38 352 170 434 335 94 193 94 390 -1 580 -129 257 -422 396 -708 334z
m453 -388 c7 -17 -102 -537 -115 -553 -17 -21 -31 -15 -109 43 -41 31 -80 58
-87 61 -7 3 -32 -13 -57 -36 -54 -50 -70 -52 -61 -10 3 17 6 53 6 79 0 47 1
48 93 130 169 152 209 191 204 197 -3 2 -89 -47 -190 -111 -101 -64 -190 -116
-196 -116 -27 0 -157 43 -171 57 -20 18 -15 21 130 78 63 24 201 78 305 119
193 75 239 87 248 62z"/>
</g>
</svg>
