<?xml version="1.0" standalone="no"?>
<!DOCTYPE svg PUBLIC "-//W3C//DTD SVG 20010904//EN"
 "http://www.w3.org/TR/2001/REC-SVG-20010904/DTD/svg10.dtd">
<svg version="1.0" xmlns="http://www.w3.org/2000/svg"
 width="128.000000pt" height="128.000000pt" viewBox="0 0 128.000000 128.000000"
 preserveAspectRatio="xMidYMid meet">

<g transform="translate(0.000000,128.000000) scale(0.100000,-0.100000)"
fill="#272727" stroke="none">
<path d="M533 1270 c-128 -23 -253 -90 -347 -185 -70 -72 -117 -148 -152 -250
-24 -69 -28 -96 -28 -195 0 -99 4 -126 28 -195 65 -189 194 -326 377 -398 336
-134 717 47 833 393 111 334 -74 700 -407 805 -89 29 -223 39 -304 25z m274
-243 c119 -25 192 -104 213 -230 13 -76 8 -205 -10 -269 -17 -60 -70 -120
-134 -152 -52 -27 -69 -30 -174 -34 l-117 -4 -47 -50 c-35 -36 -54 -49 -70
-46 -20 3 -23 9 -26 58 -3 55 -3 55 -52 82 -55 31 -104 91 -120 147 -18 63
-23 192 -10 268 20 124 94 204 208 229 76 16 262 17 339 1z"/>
<path d="M550 965 c-8 -2 -36 -6 -62 -10 -62 -8 -133 -69 -149 -127 -14 -53
-14 -222 0 -275 12 -43 87 -123 116 -123 12 0 15 -15 15 -82 l0 -82 73 71 72
71 91 6 c111 7 138 16 187 64 47 46 58 88 58 210 -1 120 -12 166 -48 204 -48
52 -99 68 -225 73 -62 2 -120 2 -128 0z m165 -94 c72 -33 115 -95 115 -167 0
-48 -16 -43 -24 8 -4 23 -16 57 -27 75 -23 37 -84 73 -123 73 -25 0 -40 12
-29 24 11 11 47 6 88 -13z m-166 -43 c35 -48 38 -64 15 -89 -30 -34 13 -113
75 -139 27 -11 33 -10 57 9 25 19 28 20 53 5 63 -37 74 -50 67 -77 -3 -15 -18
-34 -32 -44 -22 -14 -30 -15 -62 -3 -100 36 -200 124 -251 222 -31 60 -38 93
-23 114 9 12 54 44 63 44 4 0 21 -19 38 -42z m154 -2 c45 -19 68 -48 74 -95 7
-50 -12 -56 -21 -8 -7 39 -41 75 -82 86 -31 8 -45 31 -20 31 9 0 31 -6 49 -14z
m15 -64 c12 -15 17 -62 7 -62 -3 0 -10 11 -15 25 -5 14 -21 30 -35 35 -15 6
-23 15 -20 20 9 14 46 3 63 -18z"/>
</g>
</svg>
